<?xml version="1.0" encoding="UTF-8"?>
<svg id="Layer_1" data-name="Layer 1" xmlns="http://www.w3.org/2000/svg" viewBox="0 0 222.71 43.15">
  <defs>
    <style>
      .cls-1 {
        fill: #231f20;
      }
    </style>
  </defs>
  <path class="cls-1" d="m22.25,17c2.52-.96,4.12-2.88,4.12-5.92,0-4.96-4.16-6.36-8.8-6.36H5.85v3.48l2.12.16v18.28c0,.92-.2,1.08-.96,1.2l-1.24.12v3.36h2.2v9.49h.51l1.61-2.79,1.6-2.78,1.61,2.78,1.61,2.79h.51v-9.49h1.79c6.84,0,10.48-2.76,10.48-8.04,0-3.36-2.12-5.64-5.44-6.28Zm-6.83-8.44h.91c2.52,0,4.16.8,4.16,3.32,0,2.36-1.28,3.76-4.32,3.76h-.75v-7.08Zm1.47,18.76h-1.47v-7.92h1.59c2.92,0,4.6,1.24,4.6,3.8s-1.2,4.12-4.72,4.12Z"/>
  <path class="cls-1" d="m42.28,31.83c-7.36,0-11.68-4.64-11.68-13.76,0-10.24,6.36-13.84,12.16-13.84,6.12,0,11.44,3.72,11.44,13.84,0,9.12-4.68,13.76-11.92,13.76Zm.28-4.84c4.56,0,5.72-4.32,5.72-8.8,0-3.72-.92-9.08-5.84-9.08-4.48,0-5.92,4.32-5.92,8.72s.88,9.16,6.04,9.16Z"/>
  <path class="cls-1" d="m69,31.83c-7.36,0-11.68-4.64-11.68-13.76,0-10.24,6.36-13.84,12.16-13.84,6.12,0,11.44,3.72,11.44,13.84,0,9.12-4.68,13.76-11.92,13.76Zm.28-4.84c4.56,0,5.72-4.32,5.72-8.8,0-3.72-.92-9.08-5.84-9.08-4.48,0-5.92,4.32-5.92,8.72s.88,9.16,6.04,9.16Z"/>
  <path class="cls-1" d="m83.97,31.31v-3.36l1.24-.16c.76-.12.92-.36.92-1.12V8.36l-2.12-.12v-3.52h9.84v3.4l-1.04.08c-.68.12-.96.32-.96,1.08v8.12l7.64-9v-.12l-1.8-.12v-3.44h9v3.36l-1.08.12c-.76.12-1.08.48-1.6,1.08l-5.16,6.24,6.92,12.2,2.2.12v3.48h-10.92v-3.36l1.4-.16c.76-.12.76-.56.44-1.08l-3.92-6.96-3.12,3.64v4.36l1.68.12v3.44h-9.56Z"/>
  <path class="cls-1" d="m119.88,4.72l5.88,16.92h.12l6.12-16.92h8.84v3.36l-1.2.12c-.76.12-1.16.48-1.04,1.32l1.24,18.2,2.04.12v3.48h-9.56v-3.36l1.24-.12c.76-.12.92-.36.88-1.36l-.68-13.36h-.12l-5.8,15.36h-4.2l-5.64-15.16h-.08l-.8,14.4,2,.12v3.48h-9.52v-3.36l1.24-.12c.76-.12.96-.4,1.08-1.4l1.28-18.12-2.12-.12v-3.48h8.8Z"/>
  <path class="cls-1" d="m143.37,31.31v-3.36l1-.12c.92-.12,1.12-.44,1.32-1.2l6.16-18.2-2.12-.2v-3.52h9.8l8.08,22.96,2,.16v3.48h-10.28v-3.36l1.28-.12c.76-.12.92-.44.64-1.2l-.88-2.52h-8.36l-1.24,3.6,2.04.12v3.48h-9.44Zm9.44-11h6.76l-3.28-10.48h-.16l-3.32,10.48Z"/>
  <path class="cls-1" d="m171.48,27.95l1.24-.12c.76-.12.96-.32.96-1.28V8.36l-2.12-.12v-3.52h11.28c5.96,0,10,1.92,10,7.28,0,4.08-2.48,6.12-5.32,6.96,1.6.44,2.24,1.44,2.88,2.68l3.08,6.08,1.84.12v3.48h-10.04v-3.36l1.28-.12c.64-.08.8-.48.44-1.16l-1.92-3.76c-.6-1.24-1.16-1.84-2.8-1.84h-2.88v6.68l1.76.12v3.44h-9.68v-3.36Zm11.12-10.68c2.76,0,4.36-1.48,4.36-4.48,0-3.24-1.72-4-5.16-4h-2.4v8.48h3.2Z"/>
  <path class="cls-1" d="m197.36,31.31v-3.36l1.24-.16c.76-.12.92-.36.92-1.12V8.36l-2.12-.12v-3.52h9.84v3.4l-1.04.08c-.68.12-.96.32-.96,1.08v8.12l7.64-9v-.12l-1.8-.12v-3.44h9v3.36l-1.08.12c-.76.12-1.08.48-1.6,1.08l-5.16,6.24,6.92,12.2,2.2.12v3.48h-10.92v-3.36l1.4-.16c.76-.12.76-.56.44-1.08l-3.92-6.96-3.12,3.64v4.36l1.68.12v3.44h-9.56Z"/>
</svg>